<?xml version="1.0" encoding="utf-8"?>
<svg xmlns="http://www.w3.org/2000/svg" version="1.1" x="0px" y="0px" viewBox="8.275 12.532 188.162 173.599" style="enable-background:new 0 0 200 200;" xmlns:bx="https://boxy-svg.com" width="188.162px" height="173.599px"><defs><bx:export><bx:file format="svg" path="support.svg"/></bx:export></defs><g><path d="M122.36,109.85c-24.67,0-44.74-20.07-44.74-44.74c0-24.67,20.07-44.74,44.74-44.74s44.74,20.07,44.74,44.74   C167.1,89.78,147.03,109.85,122.36,109.85z M122.36,29.91c-19.41,0-35.2,15.79-35.2,35.2s15.79,35.2,35.2,35.2   c19.41,0,35.2-15.79,35.2-35.2S141.77,29.91,122.36,29.91z"/></g><path d="M180.23,127.11c-2.92-6.61-10.74-9.64-19.01-7.37l-0.13,0.03c-0.24,0.05-0.61,0.14-1.03,0.28  c-4.88,1.68-11.95,4.26-18.77,6.75c-3.64,1.33-7.36,2.69-10.74,3.91c-0.94-4.98-4.48-9.01-9.57-10.34  c-7.83-2.06-15.13-5.25-22.86-8.64c-4.08-1.79-8.3-3.63-12.57-5.28c-10.47-4.04-20.6-3.68-30.1,1.07  c-4.35,2.17-8.68,4.36-13.02,6.54c-6.39,3.22-13,6.55-19.52,9.77c-0.93,0.46-3.78,1.86-4.76,5.01c-0.98,3.15,0.55,5.91,1.06,6.82  l1.31,2.36c3.51,6.3,7.13,12.82,10.32,19.34c1.09,2.23,2.95,5.32,6.42,6.29c3.79,1.06,7.12-1.08,8.21-1.78  c4.78-3.07,9.25-2.94,14.94,0.42c9.23,5.45,16.58,9.25,23.84,12.31c4.65,1.96,9.21,2.95,13.75,2.95c3.93,0,7.84-0.74,11.78-2.2  c8.97-3.34,17.53-7.29,27.63-12.2l2.55-1.24c10.45-5.08,21.25-10.32,31.8-15.68C180.16,141.97,183.48,134.46,180.23,127.11z   M167.44,137.73c-10.47,5.32-21.24,10.55-31.65,15.61l-2.55,1.24c-9.85,4.79-18.18,8.63-26.79,11.84  c-6.2,2.31-12.07,2.12-18.49-0.59c-6.85-2.89-13.85-6.51-22.7-11.74c-4.44-2.62-8.79-3.94-13.02-3.94c-4.1,0-8.08,1.23-11.92,3.69  c-0.16,0.1-0.29,0.18-0.42,0.25c-0.14-0.23-0.3-0.53-0.5-0.93c-3.3-6.75-6.99-13.38-10.56-19.79l-0.81-1.45  c6.25-3.09,12.56-6.27,18.67-9.35c4.33-2.18,8.66-4.36,12.99-6.53c7.1-3.55,14.43-3.78,22.41-0.7c4.08,1.57,8.2,3.37,12.18,5.12  c7.72,3.38,15.71,6.88,24.26,9.12c2.4,0.63,2.91,2.93,2.62,4.71c-0.36,2.18-2.71,2.75-4.63,2.83c-0.47,0.02-0.99,0.01-1.55,0.01  c-0.24,0-0.47,0-0.71-0.01c-1.45-0.17-22.69-2.61-33.66-3.97c-0.31-0.08-0.7-0.15-1.17-0.17c-0.05,0-0.1,0-0.15,0  c-2.57,0-4.69,2.04-4.76,4.63c-0.07,2.38,1.61,4.4,3.87,4.83c0.19,0.05,0.44,0.11,0.74,0.14c6.3,0.78,15.22,1.84,21.46,2.58  c3.58,0.42,6.81,0.8,9.14,1.06c1.18,0.13,2.13,0.24,2.79,0.31c0.51,0.06,1.02,0.11,1.52,0.11c0.01,0,0.01,0,0.02,0v0.02  c0.26,0,0.52,0,0.78,0.01c0.3,0,0.6,0.01,0.9,0.01c0.38,0,0.78-0.01,1.19-0.02c4.7-0.21,8.52-1.99,10.94-4.89  c4.61-1.61,10.71-3.84,16.64-6.01c6.75-2.47,13.72-5.01,18.51-6.66l0.1-0.02c0.19-0.04,0.38-0.09,0.57-0.14  c3.62-0.99,6.82-0.16,7.78,2.02C172.91,134.14,170.07,136.4,167.44,137.73z"/><g><path d="M138.24,54.41c-1.26-1.36-3.61-2.18-6.07-0.03c-0.65,0.57-1.22,1.16-1.78,1.74l-4.1,4.24c-1.82,1.88-1.82,1.88-3.85,3.97   l-4.41,4.55l-0.72-0.72c-0.74-0.74-1.44-1.47-2.15-2.21l-0.17-0.17c-0.63-0.66-1.27-1.31-1.91-1.96c-1.11-1.13-2.31-1.71-3.55-1.71   c-0.77,0-1.92,0.23-3,1.33c-0.69,0.7-2.71,3.25,0.43,6.53c1.87,1.96,3.76,3.9,5.64,5.84l1.71,1.77c0.76,0.78,1.84,1.7,3.49,1.83   l0.11,0.01l0.11,0c2.02-0.02,3.2-1.3,3.9-2.07c0.09-0.1,0.18-0.2,0.27-0.29l6.7-6.92c1.85-1.9,2.99-3.08,8.23-8.5   c0.3-0.31,0.6-0.63,0.9-0.95C139.86,58.71,139.95,56.24,138.24,54.41z"/></g></svg>